<svg aria-hidden="true" clasName="sc-icon__svg" width="165" height="130" viewBox="0 0 165 130"
    fill="none" xmlns="http://www.w3.org/2000/svg">
    <path fill-rule="evenodd" clip-rule="evenodd"
        d="M108.638 28.4836C98.8041 27.1695 87.1506 29.2481 79.6475 35.8053C71.409 43.0023 64.8352 47.2949 55.7558 49.5746C47.0864 51.7534 30.8066 52.0718 22.1159 62.3364C11.2941 75.1171 18.4525 91.5713 33.8732 102.388C51.105 114.477 83.8567 126.006 113.377 115.205C142.241 104.643 149.097 79.3685 145.916 64.1788C141.505 43.1173 122.094 30.28 108.638 28.4836"
        fill="black" fill-opacity="0.04"></path>
    <rect x="31.1909" y="33.9741" width="108.422" height="79.8172" rx="3.2269" fill="white"></rect>
    <path
        d="M32.8044 48.3158H137.999V108.413C137.999 110.492 136.314 112.178 134.235 112.178H36.5691C34.49 112.178 32.8044 110.492 32.8044 108.413V48.3158Z"
        fill="#EEEEEE" stroke="white" stroke-width="3.2269"></path>
    <path
        d="M139.613 61.6162V64.6928V65.417M31.1909 93.0555V37.201C31.1909 35.4189 32.6357 33.9741 34.4178 33.9741H136.386C138.168 33.9741 139.613 35.4189 139.613 37.201V57.2061M31.1909 97.8508V98.5358V101.818V110.564C31.1909 112.347 32.6357 113.791 34.4178 113.791H136.386C138.168 113.791 139.613 112.347 139.613 110.564V70.641V70.109"
        stroke="#333333" stroke-width="1.61345"></path>
    <path d="M31.191 46.7024H139.613" stroke="#333333" stroke-width="1.61345"></path>
    <rect x="103.977" y="95.7021" width="19.3338" height="3.21564"
        transform="rotate(45 103.977 95.7021)" fill="white" stroke="#333333" stroke-width="1.8298"></rect>
    <circle cx="85.7812" cy="79.7812" r="25.7811" fill="white"></circle>
    <circle cx="85.7812" cy="79.7809" r="17.9911" fill="white" stroke="white" stroke-width="3.6596"></circle>
    <circle cx="85.7812" cy="79.7812" r="25.7811" stroke="#333333" stroke-width="1.8298"></circle>
    <circle cx="85.7812" cy="79.7809" r="19.8209" stroke="#333333" stroke-width="1.8298"></circle>
    <rect x="113.624" y="100.664" width="30.231" height="9.84264" rx="2.43973"
        transform="rotate(45 113.624 100.664)" fill="white" stroke="#333333" stroke-width="1.8298"></rect>
    <rect x="113.265" y="105.48" width="23.6287" height="2.4741"
        transform="rotate(45 113.265 105.48)" fill="#EEEEEE"></rect>
    <ellipse cx="37.3913" cy="40.4318" rx="1.17031" ry="1.12593" fill="#333333"></ellipse>
    <ellipse cx="43.6327" cy="40.4318" rx="1.17031" ry="1.12593" fill="#333333"></ellipse>
    <ellipse cx="49.8745" cy="40.4318" rx="1.17031" ry="1.12593" fill="#333333"></ellipse>
    <path d="M77.2272 88.1223L93.8532 71.852" stroke="#333333" stroke-width="1.61345"></path>
    <path d="M93.7863 88.1223L77.1603 71.852" stroke="#333333" stroke-width="1.61345"></path>
</svg>